{"title":"A Charlie Brown Thanksgiving.1973 BDRip x264 Ukr sub","uid":10715684,"size":177989583,"categoryP":"video","categoryS":"handheld","magnet":"?xt=urn:btih:f5c19b3ef4b2eb4b1295f32cbead4d2f0e116b45&amp;dn=A+Charlie+Brown+Thanksgiving.1973+BDRip+x264+Ukr+sub&amp;tr=udp%3A%2F%2Ftracker.openbittorrent.com%3A80&amp;tr=udp%3A%2F%2Fopen.demonii.com%3A1337&amp;tr=udp%3A%2F%2Ftracker.coppersurfer.tk%3A6969&amp;tr=udp%3A%2F%2Fexodus.desync.com%3A6969","seeders":0,"leechers":0,"uploader":"orysia","files":-1,"time":1407407743,"description":"\nDirectors: Bill Melendez, Phil Roman\nWriter: Charles M. Schulz (written and created by)\nStars: Todd Barbee, Robin Kohn, Stephen Shea \n\nPeppermint Patty invites herself and her friends over to Charlie Brown's for Thanksgiving, and with Linus, Snoopy, and Woodstock, he attempts to throw together a Thanksgiving dinner.\n\nFormat                                   : MPEG-4\nFormat profile                           : Base Media\nCodec ID                                 : isom\nFile size                                : 170 MiB\nDuration                                 : 25mn 25s\nOverall bit rate mode                    : Variable\nOverall bit rate                         : 934 Kbps\nMovie name                               : A Charlie Brown Thanksgiving*1973 /antusyrzhuk\nGenre                                    : Animation\nRecorded date                            : 1973\n\nComment                                  : http://cinemasterpiece .wordpress .com/\n\nVideo\nID                                       : 1\nFormat                                   : AVC\nFormat/Info                              : Advanced Video Codec\nFormat profile                           : &lt;a class=&quot;__cf_email__&quot; href=&quot;/cdn-cgi/l/email-protection&quot; data-cfemail=&quot;8fc2eee6e1cfc3bca1be&quot;&gt;[email&amp;#160;protected]&lt;/a&gt;&lt;script cf-hash='f9e31' type=&quot;text/javascript&quot;&gt;\n/* &lt;![CDATA[ */!function(){try{var t=&quot;currentScript&quot;in document?document.currentScript:function(){for(var t=document.getElementsByTagName(&quot;script&quot;),e=t.length;e--;)if(t[e].getAttribute(&quot;cf-hash&quot;))return t[e]}();if(t&amp;&amp;t.previousSibling){var e,r,n,i,c=t.previousSibling,a=c.getAttribute(&quot;data-cfemail&quot;);if(a){for(e=&quot;&quot;,r=parseInt(a.substr(0,2),16),n=2;a.length-n;n+=2)i=parseInt(a.substr(n,2),16)^r,e+=String.fromCharCode(i);e=document.createTextNode(e),c.parentNode.replaceChild(e,c)}}}catch(u){}}();/* ]]&gt; */&lt;/script&gt;\nFormat settings, CABAC                   : Yes\nFormat settings, ReFrames                : 10 frames\nCodec ID                                 : avc1\nCodec ID/Info                            : Advanced Video Coding\nDuration                                 : 25mn 21s\nBit rate                                 : 820 Kbps\nMaximum bit rate                         : 3 090 Kbps\nWidth                                    : 656 pixels\nHeight                                   : 476 pixels\nDisplay aspect ratio                     : 1.378\nFrame rate mode                          : Constant\nFrame rate                               : 23.976 fps\nColor space                              : YUV\nChroma subsampling                       : 4:2:0\nBit depth                                : 8 bits\nScan type                                : Progressive\nBits/(Pixel*Frame)                       : 0.110\nStream size                              : 149 MiB (88%)\n\nAudio\nID                                       : 2\nFormat                                   : AAC\nFormat/Info                              : Advanced Audio Codec\nFormat profile                           : LC\nCodec ID                                 : 40\nDuration                                 : 25mn 21s\nBit rate mode                            : Variable\nBit rate                                 : 112 Kbps\nMaximum bit rate                         : 158 Kbps\nChannel(s)                               : 2 channels\nChannel positions                        : Front: L R\nSampling rate                            : 48.0 KHz\nCompression mode                         : Lossy\nStream size                              : 20.3 MiB (12%)\nLanguage                                 : English\n\n+ Ukrainian subtitles in container\n\nEnglish subtitles: http://subscene.com/subtitles/a-charlie-brown-thanksgiving/english/960600 &lt;a href=&quot;\nhttp://subscene.com/subtitles/a-charlie-brown-thanksgiving/english/960601&quot; rel=&quot;nofollow&quot; target=&quot;_NEW&quot;&gt;\nhttp://subscene.com/subtitles/a-charlie-brown-thanksgiving/english/960601&lt;/a&gt; (SDH)\nFrench subtitles: http://subscene.com/subtitles/a-charlie-brown-thanksgiving/french/960602\n\nScreenshots: &lt;a href=&quot;\nhttp://postimg.org/image/qnpyd11np/&quot; rel=&quot;nofollow&quot; target=&quot;_NEW&quot;&gt;\nhttp://postimg.org/image/qnpyd11np/&lt;/a&gt; &lt;a href=&quot;\nhttp://postimg.org/image/4pthj8mn9/&quot; rel=&quot;nofollow&quot; target=&quot;_NEW&quot;&gt;\nhttp://postimg.org/image/4pthj8mn9/&lt;/a&gt; &lt;a href=&quot;\nhttp://postimg.org/image/si2suroo5/&quot; rel=&quot;nofollow&quot; target=&quot;_NEW&quot;&gt;\nhttp://postimg.org/image/si2suroo5/&lt;/a&gt; &lt;a href=&quot;\nhttp://postimg.org/image/a3s9qscdh/&quot; rel=&quot;nofollow&quot; target=&quot;_NEW&quot;&gt;\nhttp://postimg.org/image/a3s9qscdh/&lt;/a&gt;","torrent":{"xt":"urn:btih:f5c19b3ef4b2eb4b1295f32cbead4d2f0e116b45","amp;dn":"A+Charlie+Brown+Thanksgiving.1973+BDRip+x264+Ukr+sub","amp;tr":["udp%3A%2F%2Ftracker.openbittorrent.com%3A80","udp%3A%2F%2Fopen.demonii.com%3A1337","udp%3A%2F%2Ftracker.coppersurfer.tk%3A6969","udp%3A%2F%2Fexodus.desync.com%3A6969"],"infoHash":"f5c19b3ef4b2eb4b1295f32cbead4d2f0e116b45","infoHashBuffer":{"type":"Buffer","data":[245,193,155,62,244,178,235,75,18,149,243,44,190,173,77,47,14,17,107,69]},"announce":[],"urlList":[]}}